<svg width="44px" height="44px" viewBox="0 0 44 44" version="1.1" xmlns="http://www.w3.org/2000/svg" xmlns:xlink="http://www.w3.org/1999/xlink">
    <g id="44px-Glyph" stroke="none" stroke-width="1" fill="none" fill-rule="evenodd">
        <g id="soc-instagram" fill="#acacac">
            <path d="M22,26.6152 C24.55,26.6152 26.615,24.5492 26.615,22.0002 C26.615,19.4522 24.55,17.3842 22,17.3842 C19.45,17.3842 17.385,19.4522 17.385,22.0002 C17.385,24.5492 19.45,26.6152 22,26.6152" id="Fill-60"></path>
            <path d="M34,31.2295 C34,32.7615 32.761,33.9995 31.231,33.9995 L12.769,33.9995 C11.24,33.9995 10,32.7615 10,31.2295 L10,12.7675 C10,11.2385 11.24,9.9995 12.769,9.9995 L31.231,9.9995 C32.761,9.9995 34,11.2385 34,12.7675 L34,31.2295 Z M22,-0.0005 C9.869,-0.0005 0,9.8695 0,21.9995 C0,34.1305 9.869,43.9995 22,43.9995 C34.131,43.9995 44,34.1305 44,21.9995 C44,9.8695 34.131,-0.0005 22,-0.0005 L22,-0.0005 Z" id="Fill-61"></path>
            <path d="M29.3848,22 C29.3848,26.078 26.0778,29.384 21.9998,29.384 C17.9218,29.384 14.6148,26.078 14.6148,22 C14.6148,21.361 14.7068,20.742 14.8578,20.152 L12.7688,20.152 L12.7688,30.308 C12.7688,30.817 13.1818,31.23 13.6928,31.23 L30.3068,31.23 C30.8178,31.23 31.2308,30.817 31.2308,30.308 L31.2308,20.152 L29.1418,20.152 C29.2948,20.742 29.3848,21.361 29.3848,22" id="Fill-62"></path>
            <path d="M30.3071,12.7676 L27.5391,12.7676 C27.0291,12.7676 26.6151,13.1816 26.6151,13.6916 L26.6151,16.4606 C26.6151,16.9696 27.0291,17.3836 27.5391,17.3836 L30.3071,17.3836 C30.8181,17.3836 31.2311,16.9696 31.2311,16.4606 L31.2311,13.6916 C31.2311,13.1816 30.8181,12.7676 30.3071,12.7676" id="Fill-63"></path>
        </g>
    </g>
</svg>
