<svg width="61px" height="47px" viewBox="0 0 61 47" version="1.1" xmlns="http://www.w3.org/2000/svg" xmlns:xlink="http://www.w3.org/1999/xlink">
    <g id="Page-1" stroke="none" stroke-width="1" fill="none" fill-rule="evenodd" stroke-linecap="round" stroke-linejoin="round">
        <g id="DM---Homepage-Video" transform="translate(-887.000000, -3165.000000)" stroke-width="2">
            <g id="features" transform="translate(271.000000, 3111.000000)">
                <g id="Page-1" transform="translate(617.000000, 55.000000)">
                    <polyline id="Stroke-1" stroke="#4499FF" points="0 18 7.44192256 29 16 18.8294387"></polyline>
                    <polyline id="Stroke-3" stroke="#B8B8B8" points="59 29 51.5607477 18 43 28.1705613"></polyline>
                    <path d="M52.6818316,18 C54.7454329,30.2133605 46.5231045,41.6718411 35.2000281,44.3775036 C27.3038129,46.2687617 19.3862132,43.7335559 14,38.3601102" id="Stroke-5" stroke="#B8B8B8"></path>
                    <path d="M8.64586002,29 C5.55920894,16.076443 13.8960763,3.46783645 25.980831,0.609462173 C34.3282781,-1.36758003 42.68895,1.59665996 48,7.59924593" id="Stroke-7" stroke="#4499FF"></path>
                    <path d="M33.3885832,26.3905459 C31.2427785,28.5364847 27.7572215,28.5364847 25.6114168,26.3905459 C23.4628611,24.2418558 23.4628611,20.758832 25.6114168,18.6073907 C27.7572215,16.4642031 31.2427785,16.4642031 33.3885832,18.6073907 C35.5371389,20.758832 35.5371389,24.2418558 33.3885832,26.3905459 Z" id="Stroke-9" stroke="#B8B8B8"></path>
                </g>
            </g>
        </g>
    </g>
</svg>
