<svg width="51px" height="48px" viewBox="0 0 51 48" version="1.1" xmlns="http://www.w3.org/2000/svg" xmlns:xlink="http://www.w3.org/1999/xlink">
    <g id="Page-1" stroke="none" stroke-width="1" fill="none" fill-rule="evenodd" stroke-linecap="round" stroke-linejoin="round">
        <g id="DM---Homepage-Video" transform="translate(-603.000000, -3625.000000)" stroke-width="2">
            <g id="features" transform="translate(271.000000, 3111.000000)">
                <g id="Page-1" transform="translate(333.000000, 515.000000)">
                    <g id="Group-15" transform="translate(0.000000, 25.000000)">
                        <path d="M0,20.4444444 L12.9166667,20.4444444" id="Stroke-1" stroke="#4499FF"></path>
                        <path d="M0,15.3333333 L12.9166667,15.3333333" id="Stroke-3" stroke="#4499FF"></path>
                        <path d="M0,10.2222222 L12.9166667,10.2222222" id="Stroke-5" stroke="#4499FF"></path>
                        <path d="M0,5.11111111 L12.9166667,5.11111111" id="Stroke-7" stroke="#B8B8B8"></path>
                        <path d="M0,0 L12.9166667,0" id="Stroke-9" stroke="#B8B8B8"></path>
                        <path d="M18.0833333,20.4444444 L31,20.4444444" id="Stroke-11" stroke="#4499FF"></path>
                        <path d="M18.0833333,15.3333333 L31,15.3333333" id="Stroke-13" stroke="#4499FF"></path>
                    </g>
                    <path d="M18,35 L31,35" id="Stroke-16" stroke="#4499FF"></path>
                    <path d="M18,30 L31,30" id="Stroke-17" stroke="#4499FF"></path>
                    <path d="M18,25 L31,25" id="Stroke-18" stroke="#4499FF"></path>
                    <path d="M18,20 L31,20" id="Stroke-19" stroke="#4499FF"></path>
                    <path d="M18,15 L31,15" id="Stroke-20" stroke="#4499FF"></path>
                    <path d="M18,10 L31,10" id="Stroke-21" stroke="#4499FF"></path>
                    <g id="Group-32" transform="translate(18.000000, 0.000000)">
                        <path d="M0,5.15789474 L12.9166667,5.15789474" id="Stroke-22" stroke="#B8B8B8"></path>
                        <path d="M0,0 L12.9166667,0" id="Stroke-24" stroke="#B8B8B8"></path>
                        <path d="M18.0833333,45.4210526 L31,45.4210526" id="Stroke-26" stroke="#4499FF"></path>
                        <path d="M18.0833333,40.2631579 L31,40.2631579" id="Stroke-28" stroke="#B8B8B8"></path>
                        <path d="M18.0833333,35.1052632 L31,35.1052632" id="Stroke-30" stroke="#B8B8B8"></path>
                    </g>
                </g>
            </g>
        </g>
    </g>
</svg>
