<svg width="62px" height="55px" viewBox="0 0 62 55" version="1.1" xmlns="http://www.w3.org/2000/svg" xmlns:xlink="http://www.w3.org/1999/xlink">
    <g id="Page-1" stroke="none" stroke-width="1" fill="none" fill-rule="evenodd" stroke-linecap="round">
        <g id="DM---Homepage-Video" transform="translate(-889.000000, -3617.000000)" stroke-width="2">
            <g id="features" transform="translate(271.000000, 3111.000000)">
                <g id="Page-1" transform="translate(619.000000, 507.000000)">
                    <path d="M28,11.0443312 C32.628,10.7295848 37.2274,12.0952641 41,15" id="Stroke-1" stroke="#B8B8B8" stroke-linejoin="round"></path>
                    <path d="M60,20 C60,22.7625 57.76,25 55,25" id="Stroke-3" stroke="#B8B8B8"></path>
                    <path d="M30.1190476,4.02857143 C27.8928571,4.02857143 25.7452381,4.30788571 23.6919048,4.78057143 C22.1178571,1.92834286 19.14,0 15.7142857,0 C14.0433333,0 12.482381,0.47 11.1309524,1.26765714 C13.5142857,2.68302857 15.2219048,5.16462857 15.622619,8.07862857 C10.1357143,11.4841143 6.31190476,16.7588571 5.43190476,22.8285714 L0,22.8285714 L0,33.5714286 L7.06357143,33.5714286 C10.7564286,41.4432571 19.6821429,47 30.1190476,47 C43.8611905,47 55,37.3824571 55,25.5142857 C55,13.6514857 43.8611905,4.02857143 30.1190476,4.02857143 Z" id="Stroke-5" stroke="#4499FF" stroke-linejoin="round"></path>
                    <path d="M15,21 C15,21.552 14.552,22 14,22 C13.448,22 13,21.552 13,21 C13,20.45 13.448,20 14,20 C14.552,20 15,20.45 15,21 Z" id="Stroke-7" stroke="#B8B8B8" stroke-linejoin="round"></path>
                    <path d="M18,45 L18,53" id="Stroke-9" stroke="#4499FF" stroke-linejoin="round"></path>
                    <path d="M42,45 L42,53" id="Stroke-11" stroke="#4499FF" stroke-linejoin="round"></path>
                </g>
            </g>
        </g>
    </g>
</svg>
