<svg width="52px" height="51px" viewBox="0 0 52 51" version="1.1" xmlns="http://www.w3.org/2000/svg" xmlns:xlink="http://www.w3.org/1999/xlink">
            <g id="Page-1" stroke="none" stroke-width="1" fill="none" fill-rule="evenodd">
        <g id="DM---Homepage-Video" transform="translate(-892.000000, -3378.000000)" stroke-width="2">
            <g id="features" transform="translate(271.000000, 3111.000000)">
                <g id="Page-1" transform="translate(622.000000, 268.000000)">
                    <path d="M50,16.6 C50,7.984 43.0607692,1 34.5,1 C25.9392308,1 19,7.984 19,16.6 C19,21.1888 20.9696923,25.3048 24.1054615,28.1536 C26.9264615,30.7216 28.5384615,34.3696 28.5384615,38.2 C28.5384615,44.164 33.3434615,49 39.2692308,49 C45.195,49 50,44.164 50,38.2" id="Stroke-1" stroke="#4499FF" stroke-linejoin="round"></path>
                    <path d="M8,0 C3.05700713,4.99010084 0,11.8841613 0,19.5 C0,27.1158387 3.05700713,34.0098992 8,39" id="Stroke-3" stroke="#B8B8B8" stroke-linecap="round"></path>
                    <path d="M15,7 C11.9116978,10.1966054 10,14.6166902 10,19.5011787 C10,24.3809524 11.9116978,28.8033946 15,32" id="Stroke-5" stroke="#4499FF" stroke-linecap="round"></path>
                    <path d="M41,17 C41,13.1336667 37.864,10 34,10 C30.1336667,10 27,13.1336667 27,17 C27,19.2843333 28.099,21.3073333 29.7906667,22.5813333 C30.9713333,23.4656667 31.6666667,24.8563333 31.6666667,26.3333333 C31.6666667,28.9093333 33.7573333,31 36.3333333,31 C38.9093333,31 41,28.9093333 41,26.3333333" id="Stroke-7" stroke="#B8B8B8" stroke-linecap="round"></path>
                </g>
            </g>
        </g>
    </g>
</svg>
