<svg width="36px" height="51px" viewBox="0 0 36 51" version="1.1" xmlns="http://www.w3.org/2000/svg" xmlns:xlink="http://www.w3.org/1999/xlink">
    <g id="Page-1" stroke="none" stroke-width="1" fill="none" fill-rule="evenodd" stroke-linecap="round" stroke-linejoin="round">
        <g id="DM---Homepage-Video" transform="translate(-605.000000, -3382.000000)" stroke-width="2">
            <g id="features" transform="translate(271.000000, 3111.000000)">
                <g id="Page-1" transform="translate(335.000000, 272.000000)">
                    <path d="M34,17 C34,26.38825 26.38825,34 17,34 C7.609625,34 0,26.38825 0,17 C0,7.61175 7.609625,0 17,0 C26.38825,0 34,7.61175 34,17 Z" id="Stroke-1" stroke="#4499FF"></path>
                    <path d="M12,38 L23,38" id="Stroke-3" stroke="#4499FF"></path>
                    <path d="M12,43 L23,43" id="Stroke-5" stroke="#B8B8B8"></path>
                    <path d="M12,47 L23,47" id="Stroke-7" stroke="#B8B8B8"></path>
                    <path d="M17,47 L17,49" id="Stroke-9" stroke="#B8B8B8"></path>
                    <polyline id="Stroke-11" stroke="#B8B8B8" points="23 23 19.8695652 26 16.7391304 23 13.6086957 26 11 23.5"></polyline>
                    <path d="M17,23 L17,34" id="Stroke-13" stroke="#B8B8B8"></path>
                </g>
            </g>
        </g>
    </g>
</svg>
