<svg width="46px" height="42px" viewBox="0 0 46 42" version="1.1" xmlns="http://www.w3.org/2000/svg" xmlns:xlink="http://www.w3.org/1999/xlink">
    <g id="Page-1" stroke="none" stroke-width="1" fill="none" fill-rule="evenodd" stroke-linecap="round" stroke-linejoin="round">
        <g id="DM---Homepage-Video" transform="translate(-315.000000, -3389.000000)" stroke="#4499FF" stroke-width="2">
            <g id="features" transform="translate(271.000000, 3111.000000)">
                <g id="Page-1" transform="translate(45.000000, 279.000000)">
                    <path d="M6.44346862,36.9664945 C-2.14782287,28.5099622 -2.14782287,14.7979899 6.44346862,6.33957468 C15.0347601,-2.11319156 28.9633269,-2.11319156 37.5565314,6.33957468 C46.1478229,14.7979899 46.1478229,28.5099622 37.5565314,36.9664945 C33.4474033,41.0111685 26.7863307,41.0111685 22.6752897,36.9664945 L14.5603356,28.9769451 C13.8142649,28.2406939 12.6014217,28.2406939 11.855351,28.9769451 C11.1073672,29.7131963 11.1073672,30.9051323 11.855351,31.6395005 C13.3474924,33.1101199 13.3474924,35.4921091 11.855351,36.9664945 C10.3612965,38.4371138 7.9375231,38.4371138 6.44346862,36.9664945 Z" id="Stroke-1"></path>
                </g>
            </g>
        </g>
    </g>
</svg>
